# xmcd
#
# Track frame offsets:
#	150
#	17695
#	37171
#	51514
#	72466
#	87669
#	105911
#	123689
#	134757
#	147588
#	152484
#
# Disc length: 2273 seconds
#
# Revision: 1
# Processed by: cddbd v1.5.2PL0 Copyright (c) Steve Scherf et al.
# Submitted via: audiograbber 1.83.01
#
DISCID=a908df0b
DTITLE=Bellamy Brothers - When We Were Boys
DYEAR=1982
DGENRE=Country
TTITLE0=For All The Wrong Reasons
TTITLE1=When We Were Boys
TTITLE2=Get Into Reggae Cowboy
TTITLE3=You Make Love So Easy
TTITLE4=Goin' Sane
TTITLE5=We're Just A Little Ole Country Band
TTITLE6=This Time
TTITLE7=Until The Money's Gone
TTITLE8=We Can Handle It
TTITLE9=When We Were Boys (Reprise)
TTITLE10=When We All Get To Heaven
EXTD=
EXTT0=
EXTT1=
EXTT2=
EXTT3=
EXTT4=
EXTT5=
EXTT6=
EXTT7=
EXTT8=
EXTT9=
EXTT10=
PLAYORDER=
